<svg width="70" height="42" viewBox="0 0 88 52" fill="none" xmlns="http://www.w3.org/2000/svg">
<path fill-rule="evenodd" clip-rule="evenodd" d="M45.4605 0.0908203H67.935C71.78 0.0908203 75.1687 0.850056 78.0862 2.38558C81.0008 3.91958 83.2748 6.08108 84.8975 8.86533C86.5229 11.6542 87.327 14.9008 87.327 18.588C87.327 22.3094 86.4975 25.5591 84.8188 28.3176C83.1598 31.0708 80.8245 33.1897 77.8266 34.6717C74.8452 36.1538 71.3775 36.8863 67.4378 36.8863H60.2816V51.9999H45.4605V19.9999H60.2816V25.1476H64.6537C66.2208 25.1476 67.5243 24.8758 68.5826 24.3547C69.6599 23.8158 70.4709 23.0617 71.0319 22.0913L71.0348 22.0862C71.6115 21.1151 71.9094 19.9552 71.9094 18.588C71.9094 17.2024 71.6108 16.0543 71.0385 15.1206L71.0336 15.1125C70.4844 14.1774 69.7633 13.6003 68.6679 13.084L68.6601 13.0803C67.5945 12.5552 66.1723 12.2245 64.614 12.2245H45.4605V0.0908203ZM46.4605 1.09082V11.2245H64.614C66.3021 11.2245 67.8775 11.5806 69.0982 12.1813C70.3195 12.7576 71.2174 13.4528 71.8935 14.602C72.5791 15.7223 72.9094 17.0587 72.9094 18.588C72.9094 20.1032 72.578 21.4449 71.8961 22.5944C71.2311 23.7436 70.2698 24.6291 69.0286 25.2497L69.026 25.251C67.7976 25.8563 66.3341 26.1476 64.6537 26.1476H59.2816V20.9999H46.4605V50.9999H59.2816V35.8863H67.4378C71.2535 35.8863 74.5636 35.1771 77.3821 33.7759L77.3831 33.7754C80.2182 32.374 82.4068 30.3833 83.9627 27.8008L83.9638 27.7989C85.5327 25.2214 86.327 22.1577 86.327 18.588C86.327 15.0498 85.5568 11.9825 84.0335 9.36887C82.5076 6.75065 80.3734 4.71944 77.6204 3.2705C74.8703 1.82306 71.6468 1.09082 67.935 1.09082H46.4605Z" fill="black"/>
<path fill-rule="evenodd" clip-rule="evenodd" d="M0.663513 0.09375H37.4567V12.2227H0.66777L0.663513 0.09375ZM1.66386 1.09375L1.66742 11.2227H36.4567V1.09375H1.66386ZM2.85509 19.9688H37.4606V52H22.6403V32.1133H2.85509V19.9688ZM3.85509 20.9688V31.1133H23.6403V51H36.4606V20.9688H3.85509Z" fill="black"/>
<path d="M1.66742 11.2227L1.66386 1.09375H36.4567V11.2227H1.66742Z" fill="#0B706A"/>
<path d="M3.85509 31.1133V20.9688H36.4606V51H23.6403V31.1133H3.85509Z" fill="#0B706A"/>
<path d="M46.4605 11.2245V1.09082H67.935C71.6468 1.09082 74.8703 1.82306 77.6204 3.2705C80.3734 4.71944 82.5076 6.75065 84.0335 9.36887C85.5568 11.9825 86.327 15.0498 86.327 18.588C86.327 22.1577 85.5327 25.2214 83.9638 27.7989L83.9627 27.8008C82.4068 30.3833 80.2182 32.374 77.3831 33.7754L77.3821 33.7759C74.5636 35.1771 71.2535 35.8863 67.4378 35.8863H59.2816V50.9999H46.4605V20.9999H59.2816V26.1476H64.6537C66.3341 26.1476 67.7976 25.8563 69.026 25.251L69.0286 25.2497C70.2698 24.6291 71.2311 23.7436 71.8961 22.5944C72.578 21.4449 72.9094 20.1032 72.9094 18.588C72.9094 17.0587 72.5791 15.7223 71.8935 14.602C71.2174 13.4528 70.3195 12.7576 69.0982 12.1813C67.8775 11.5806 66.3021 11.2245 64.614 11.2245H46.4605Z" fill="#FFD601"/>
</svg>
